<svg xmlns="http://www.w3.org/2000/svg" viewBox="0 0 52 48" width="52" height="48">
  <rect width="52" height="48" rx="11" fill="#0A0A0B"/>
  <g transform="translate(0,4)" fill="none" stroke="#E9B63F" stroke-width="2" stroke-linecap="round" stroke-linejoin="round">
    <path d="M8,33 L8,25 C8,17 14,10.5 26,10.5 C38,10.5 44,17 44,25 L44,33 Q44,34.5 42.5,34.5 L9.5,34.5 Q8,34.5 8,33 Z"/>
    <path d="M8,25 H44"/>
    <path d="M9.5,32.4 H42.5"/>
    <path d="M12,32 V30 H15.5 V32 H19 V30 H22.5 V32 H26 V30 H29.5 V32 H33 V30 H36.5 V32 H40 V30"/>
    <path d="M14.5,22 C11,18.5 13,14.8 18,14.3 C22,13.9 23.8,15.6 22.5,18 C21.2,20.4 17.6,22.4 14.5,22 Z"/>
    <path d="M37.5,22 C41,18.5 39,14.8 34,14.3 C30,13.9 28.2,15.6 29.5,18 C30.8,20.4 34.4,22.4 37.5,22 Z"/>
    <circle cx="15.8" cy="18.6" r="1.2" fill="#E9B63F" stroke="none"/>
    <circle cx="36.2" cy="18.6" r="1.2" fill="#E9B63F" stroke="none"/>
  </g>
</svg>
